<mxfile host="app.diagrams.net" agent="Mozilla/5.0 (Windows NT 10.0; Win64; x64) AppleWebKit/537.36 (KHTML, like Gecko) Chrome/130.0.0.0 Safari/537.36" version="24.8.0">
  <diagram name="Page-1" id="90a13364-a465-7bf4-72fc-28e22215d7a0">
    <mxGraphModel dx="1687" dy="875" grid="1" gridSize="10" guides="1" tooltips="1" connect="1" arrows="1" fold="1" page="1" pageScale="1.5" pageWidth="1169" pageHeight="826" background="none" math="0" shadow="0">
      <root>
        <mxCell id="0" style=";html=1;" />
        <mxCell id="1" style=";html=1;" parent="0" />
        <mxCell id="3a17f1ce550125da-14" style="edgeStyle=elbowEdgeStyle;rounded=0;html=1;startArrow=classic;startFill=1;jettySize=auto;orthogonalLoop=1;fontSize=18;elbow=vertical;" parent="1" source="3a17f1ce550125da-2" target="3a17f1ce550125da-5" edge="1">
          <mxGeometry relative="1" as="geometry" />
        </mxCell>
        <mxCell id="3a17f1ce550125da-15" style="edgeStyle=elbowEdgeStyle;rounded=0;html=1;startArrow=classic;startFill=1;jettySize=auto;orthogonalLoop=1;fontSize=18;elbow=vertical;" parent="1" source="3a17f1ce550125da-2" target="3a17f1ce550125da-6" edge="1">
          <mxGeometry relative="1" as="geometry" />
        </mxCell>
        <mxCell id="BPNwB26ax3hE2oXpdM2Z-8" value="SPI" style="edgeLabel;html=1;align=center;verticalAlign=middle;resizable=0;points=[];" vertex="1" connectable="0" parent="3a17f1ce550125da-15">
          <mxGeometry x="0.3667" y="-1" relative="1" as="geometry">
            <mxPoint x="-13" y="-12" as="offset" />
          </mxGeometry>
        </mxCell>
        <mxCell id="3a17f1ce550125da-16" style="edgeStyle=elbowEdgeStyle;rounded=0;html=1;startArrow=none;startFill=0;jettySize=auto;orthogonalLoop=1;fontSize=18;elbow=vertical;" parent="1" source="3a17f1ce550125da-2" target="3a17f1ce550125da-7" edge="1">
          <mxGeometry relative="1" as="geometry" />
        </mxCell>
        <mxCell id="BPNwB26ax3hE2oXpdM2Z-18" value="SPI/I2C" style="edgeLabel;html=1;align=center;verticalAlign=middle;resizable=0;points=[];" vertex="1" connectable="0" parent="3a17f1ce550125da-16">
          <mxGeometry x="0.4286" relative="1" as="geometry">
            <mxPoint x="-14" y="-9" as="offset" />
          </mxGeometry>
        </mxCell>
        <mxCell id="3a17f1ce550125da-2" value="ESP32-C3" style="whiteSpace=wrap;html=1;shadow=1;fontSize=18;fillColor=#f5f5f5;strokeColor=#666666;" parent="1" vertex="1">
          <mxGeometry x="787" y="454" width="170" height="280" as="geometry" />
        </mxCell>
        <mxCell id="3a17f1ce550125da-4" value="&lt;font style=&quot;font-size: 11px;&quot;&gt;NFC Reader&lt;/font&gt;" style="whiteSpace=wrap;html=1;shadow=1;fontSize=18;fillColor=#f5f5f5;strokeColor=#666666;" parent="1" vertex="1">
          <mxGeometry x="1037" y="444" width="143" height="60" as="geometry" />
        </mxCell>
        <mxCell id="3a17f1ce550125da-5" value="&lt;font style=&quot;font-size: 11px;&quot;&gt;IR Transceiver&lt;/font&gt;" style="whiteSpace=wrap;html=1;shadow=1;fontSize=18;fillColor=#f5f5f5;strokeColor=#666666;" parent="1" vertex="1">
          <mxGeometry x="1037" y="524" width="143" height="60" as="geometry" />
        </mxCell>
        <mxCell id="3a17f1ce550125da-6" value="&lt;font style=&quot;font-size: 12px;&quot;&gt;Flash Memory&lt;/font&gt;" style="whiteSpace=wrap;html=1;shadow=1;fontSize=18;fillColor=#f5f5f5;strokeColor=#666666;" parent="1" vertex="1">
          <mxGeometry x="1037" y="604" width="143" height="60" as="geometry" />
        </mxCell>
        <mxCell id="3a17f1ce550125da-7" value="&lt;font style=&quot;font-size: 12px;&quot;&gt;RF Modules&lt;/font&gt;" style="whiteSpace=wrap;html=1;shadow=1;fontSize=18;fillColor=#f5f5f5;strokeColor=#666666;" parent="1" vertex="1">
          <mxGeometry x="1037" y="684" width="143" height="60" as="geometry" />
        </mxCell>
        <mxCell id="3a17f1ce550125da-21" style="edgeStyle=elbowEdgeStyle;rounded=0;html=1;startArrow=none;startFill=0;jettySize=auto;orthogonalLoop=1;fontSize=18;elbow=vertical;" parent="1" source="3a17f1ce550125da-9" target="3a17f1ce550125da-2" edge="1">
          <mxGeometry relative="1" as="geometry" />
        </mxCell>
        <mxCell id="BPNwB26ax3hE2oXpdM2Z-16" value="I2C" style="edgeLabel;html=1;align=center;verticalAlign=middle;resizable=0;points=[];" vertex="1" connectable="0" parent="3a17f1ce550125da-21">
          <mxGeometry x="0.2079" y="1" relative="1" as="geometry">
            <mxPoint x="-10" y="-13" as="offset" />
          </mxGeometry>
        </mxCell>
        <mxCell id="3a17f1ce550125da-9" value="&lt;font style=&quot;font-size: 12px;&quot;&gt;OLED&lt;/font&gt;&lt;div style=&quot;font-size: 12px;&quot;&gt;&lt;font style=&quot;font-size: 12px;&quot;&gt;Display&lt;/font&gt;&lt;/div&gt;" style="whiteSpace=wrap;html=1;shadow=1;fontSize=12;fillColor=#f5f5f5;strokeColor=#666666;" parent="1" vertex="1">
          <mxGeometry x="590" y="634" width="120" height="60" as="geometry" />
        </mxCell>
        <mxCell id="BPNwB26ax3hE2oXpdM2Z-10" style="edgeStyle=orthogonalEdgeStyle;rounded=0;orthogonalLoop=1;jettySize=auto;html=1;entryX=0;entryY=0.5;entryDx=0;entryDy=0;" edge="1" parent="1" source="3a17f1ce550125da-10" target="BPNwB26ax3hE2oXpdM2Z-9">
          <mxGeometry relative="1" as="geometry" />
        </mxCell>
        <mxCell id="3a17f1ce550125da-10" value="Charging&lt;div style=&quot;font-size: 12px;&quot;&gt;&lt;span style=&quot;background-color: initial; font-size: 12px;&quot;&gt;Module&lt;/span&gt;&lt;/div&gt;" style="whiteSpace=wrap;html=1;shadow=1;fontSize=12;fillColor=#f5f5f5;strokeColor=#666666;" parent="1" vertex="1">
          <mxGeometry x="590" y="720" width="145" height="60" as="geometry" />
        </mxCell>
        <mxCell id="3a17f1ce550125da-11" value="Battery" style="whiteSpace=wrap;html=1;shadow=1;fontSize=12;fillColor=#f5f5f5;strokeColor=#666666;" parent="1" vertex="1">
          <mxGeometry x="590" y="820" width="140" height="60" as="geometry" />
        </mxCell>
        <mxCell id="BPNwB26ax3hE2oXpdM2Z-2" style="rounded=0;orthogonalLoop=1;jettySize=auto;html=1;exitX=0;exitY=0.5;exitDx=0;exitDy=0;entryX=0.998;entryY=0.073;entryDx=0;entryDy=0;entryPerimeter=0;strokeColor=default;startArrow=classic;startFill=1;edgeStyle=orthogonalEdgeStyle;" edge="1" parent="1" source="3a17f1ce550125da-4" target="3a17f1ce550125da-2">
          <mxGeometry relative="1" as="geometry" />
        </mxCell>
        <mxCell id="BPNwB26ax3hE2oXpdM2Z-3" value="SPI" style="edgeLabel;html=1;align=center;verticalAlign=middle;resizable=0;points=[];" vertex="1" connectable="0" parent="BPNwB26ax3hE2oXpdM2Z-2">
          <mxGeometry x="-0.4055" relative="1" as="geometry">
            <mxPoint x="-13" y="-8" as="offset" />
          </mxGeometry>
        </mxCell>
        <mxCell id="BPNwB26ax3hE2oXpdM2Z-4" value="GPIO" style="edgeLabel;html=1;align=center;verticalAlign=middle;resizable=0;points=[];" vertex="1" connectable="0" parent="1">
          <mxGeometry x="999" y="546" as="geometry" />
        </mxCell>
        <mxCell id="BPNwB26ax3hE2oXpdM2Z-5" value="Bluetooth" style="rounded=1;whiteSpace=wrap;html=1;" vertex="1" parent="1">
          <mxGeometry x="876.5" y="464" width="70.5" height="60" as="geometry" />
        </mxCell>
        <mxCell id="BPNwB26ax3hE2oXpdM2Z-6" value="WiFi" style="rounded=1;whiteSpace=wrap;html=1;" vertex="1" parent="1">
          <mxGeometry x="797" y="464" width="70.5" height="60" as="geometry" />
        </mxCell>
        <mxCell id="BPNwB26ax3hE2oXpdM2Z-7" value="USB" style="rounded=1;whiteSpace=wrap;html=1;" vertex="1" parent="1">
          <mxGeometry x="836.75" y="680" width="70.5" height="40" as="geometry" />
        </mxCell>
        <mxCell id="BPNwB26ax3hE2oXpdM2Z-17" style="edgeStyle=orthogonalEdgeStyle;rounded=0;orthogonalLoop=1;jettySize=auto;html=1;" edge="1" parent="1" source="BPNwB26ax3hE2oXpdM2Z-9" target="3a17f1ce550125da-2">
          <mxGeometry relative="1" as="geometry" />
        </mxCell>
        <mxCell id="BPNwB26ax3hE2oXpdM2Z-9" value="LDO" style="whiteSpace=wrap;html=1;shadow=1;fontSize=18;fillColor=#f5f5f5;strokeColor=#666666;" vertex="1" parent="1">
          <mxGeometry x="799.5" y="760" width="145" height="60" as="geometry" />
        </mxCell>
        <mxCell id="BPNwB26ax3hE2oXpdM2Z-15" style="edgeStyle=orthogonalEdgeStyle;rounded=0;orthogonalLoop=1;jettySize=auto;html=1;exitX=0.5;exitY=1;exitDx=0;exitDy=0;exitPerimeter=0;entryX=0;entryY=0.5;entryDx=0;entryDy=0;" edge="1" parent="1" source="BPNwB26ax3hE2oXpdM2Z-12" target="BPNwB26ax3hE2oXpdM2Z-6">
          <mxGeometry relative="1" as="geometry" />
        </mxCell>
        <mxCell id="BPNwB26ax3hE2oXpdM2Z-12" value="" style="verticalLabelPosition=bottom;shadow=0;dashed=0;align=center;html=1;verticalAlign=top;shape=mxgraph.electrical.radio.aerial_-_antenna_2;" vertex="1" parent="1">
          <mxGeometry x="730" y="430" width="18.96" height="24" as="geometry" />
        </mxCell>
        <mxCell id="BPNwB26ax3hE2oXpdM2Z-19" style="edgeStyle=orthogonalEdgeStyle;rounded=0;orthogonalLoop=1;jettySize=auto;html=1;exitX=0.5;exitY=0;exitDx=0;exitDy=0;entryX=0.478;entryY=0.974;entryDx=0;entryDy=0;entryPerimeter=0;" edge="1" parent="1" source="3a17f1ce550125da-11" target="3a17f1ce550125da-10">
          <mxGeometry relative="1" as="geometry" />
        </mxCell>
        <mxCell id="BPNwB26ax3hE2oXpdM2Z-20" value="Buttons" style="whiteSpace=wrap;html=1;shadow=1;fontSize=12;fillColor=#f5f5f5;strokeColor=#666666;" vertex="1" parent="1">
          <mxGeometry x="590" y="560" width="120" height="60" as="geometry" />
        </mxCell>
        <mxCell id="BPNwB26ax3hE2oXpdM2Z-21" style="edgeStyle=orthogonalEdgeStyle;rounded=0;orthogonalLoop=1;jettySize=auto;html=1;entryX=-0.017;entryY=0.487;entryDx=0;entryDy=0;entryPerimeter=0;" edge="1" parent="1" source="BPNwB26ax3hE2oXpdM2Z-20" target="3a17f1ce550125da-2">
          <mxGeometry relative="1" as="geometry" />
        </mxCell>
        <mxCell id="BPNwB26ax3hE2oXpdM2Z-22" value="GPIO" style="edgeLabel;html=1;align=center;verticalAlign=middle;resizable=0;points=[];" vertex="1" connectable="0" parent="BPNwB26ax3hE2oXpdM2Z-21">
          <mxGeometry x="-0.0705" relative="1" as="geometry">
            <mxPoint x="-1" y="-10" as="offset" />
          </mxGeometry>
        </mxCell>
      </root>
    </mxGraphModel>
  </diagram>
</mxfile>
